<?xml version="1.0" encoding="UTF-8"?>
<svg id="Layer_1" data-name="Layer 1" xmlns="http://www.w3.org/2000/svg" viewBox="0 0 1024 1024">
  <defs>
    <style>
      .cls-1 {
        fill: #ef8d27;
      }

      .cls-2 {
        fill: #f3a826;
      }
    </style>
  </defs>
  <path class="cls-2" d="M547.48,434.98l145.24-21.82c-.97,3.19-3.53,6.23-6.25,9.56l-75.76,92.63-145.81,178.06c-77.07,94.11-153.23,187.96-234.83,278.41l.61-1.43,102.61-236.61,55.19-128.07-253.77,41.4L378.31,104.7l.04-.1,2.68-5.94,7.39-1.44,327.5-64.44-112.77,170.76-85.3,128.36-79.16,119.56,108.78-16.47Z"/>
  <polygon class="cls-1" points="886.09 0 726.06 207.1 547.48 434.98 438.7 451.45 517.86 331.89 603.16 203.53 715.93 32.77 886.09 0"/>
  <path class="cls-1" d="M841.22,389.4l-130.59,129.51-111.67,112.58-145.81,145.64-245.66,246.86,22.59-52.18c81.61-90.46,157.76-184.31,234.83-278.41l145.81-178.06,75.76-92.63c2.72-3.33,5.28-6.37,6.25-9.56l148.5-23.76Z"/>
</svg>
