<?xml version="1.0" encoding="UTF-8"?>
<svg id="Layer_1" data-name="Layer 1" xmlns="http://www.w3.org/2000/svg" viewBox="0 0 1024 1024">
  <defs>
    <style>
      .cls-1 {
        fill: #f3a826;
      }
    </style>
  </defs>
  <path class="cls-1" d="M873.22,401c-.23.67-.53,1.34-.9,2-.24.41-.48.83-.76,1.24-.45.7-.97,1.39-1.53,2.07-.35.43-.71.87-1.09,1.31-.02,0-.02.02-.02.02-.39.44-.78.88-1.19,1.32-.83.91-1.69,1.82-2.57,2.75l-98.09,104.02-188.78,199.98c-12.48,13.21-24.94,26.42-37.39,39.62-12.45,13.19-24.9,26.37-37.36,39.53-10.22,10.8-20.45,21.58-30.71,32.35h-98.04l33.07-66.15,71.46-143.83-328.55,46.5,241.77-466.97h340.82l-86.55,112.98-102.49,134.26,140.84-18.49.02-.02,188.04-24.5Z"/>
</svg>
