<?xml version="1.0" encoding="UTF-8"?>
<svg id="Layer_1" data-name="Layer 1" xmlns="http://www.w3.org/2000/svg" viewBox="0 0 1024 1024">
  <defs>
    <style>
      .cls-1 {
        fill: #f3a826;
      }

      .cls-2 {
        fill: #c2511a;
      }
    </style>
  </defs>
  <path class="cls-2" d="M934.04,439.29c-.24.76-.55,1.5-.93,2.25-.24.46-.5.94-.79,1.4-.47.78-1,1.56-1.59,2.34-.36.49-.74.98-1.13,1.48-.02,0-.02.02-.03.02-.4.5-.81.99-1.23,1.49-.86,1.02-1.75,2.05-2.67,3.1l-101.61,117.17-195.56,225.26c-12.93,14.88-25.83,29.76-38.73,44.63-12.9,14.86-25.79,29.7-38.7,44.53-10.59,12.16-21.18,24.31-31.81,36.44h-101.56l34.26-74.51,74.03-162.01-340.35,52.37L436.1,209.25h353.06l-89.66,127.26-106.17,151.23,145.9-20.83.02-.02,194.79-27.6Z"/>
  <path class="cls-1" d="M886.19,383.67c-.24.76-.55,1.5-.93,2.25-.24.46-.5.94-.79,1.4-.47.78-1,1.56-1.59,2.34-.36.49-.74.98-1.13,1.48-.02,0-.02.02-.03.02-.4.5-.81.99-1.23,1.49-.86,1.02-1.75,2.05-2.67,3.1l-101.61,117.17-195.56,225.26c-12.93,14.88-25.83,29.76-38.73,44.63-12.9,14.86-25.79,29.7-38.7,44.53-10.59,12.16-21.18,24.31-31.81,36.44h-101.56l34.26-74.51,74.03-162.01-340.35,52.37L388.25,153.62h353.06l-89.66,127.26-106.17,151.23,145.9-20.83.02-.02,194.79-27.6Z"/>
</svg>