<?xml version="1.0" encoding="UTF-8"?>
<svg id="Layer_1" data-name="Layer 1" xmlns="http://www.w3.org/2000/svg" viewBox="0 0 1024 1024">
  <defs>
    <style>
      .cls-1 {
        fill: #ef8d27;
      }

      .cls-2 {
        fill: #f3a826;
      }
    </style>
  </defs>
  <path class="cls-2" d="M768.32,389.24c-.22.74-.51,1.48-.87,2.21-.22.46-.46.92-.73,1.38-.44.77-.93,1.53-1.47,2.29-.34.48-.69.96-1.05,1.45-.01.01-.01.02-.02.02-.37.49-.75.98-1.14,1.47-.79,1-1.62,2.01-2.47,3.04l-94.1,115.05-181.1,221.16c-11.97,14.61-23.92,29.22-35.87,43.82-11.94,14.59-23.88,29.16-35.83,43.72-55.07,67.06-110.41,133.69-167.55,199.15h-26.8l102.57-236.53,68.55-159.07-315.19,51.42L377.81,6.12l.05-.12,2.71-6h361.62l-85.12,128.89-105.95,159.43-98.32,148.49,135.11-20.45.02-.02,180.39-27.1Z"/>
  <polygon class="cls-1" points="912.74 0 809.73 133.31 587.93 416.34 452.82 436.8 551.14 288.3 657.08 128.87 742.19 0 912.74 0"/>
  <path class="cls-1" d="M952.77,359.72h-.01s-162.2,160.87-162.2,160.87l-138.69,139.83-181.11,180.89-181.8,182.69h-42.84c57.14-65.46,112.48-132.09,167.55-199.15,11.95-14.56,23.89-29.13,35.83-43.72,11.95-14.6,23.9-29.21,35.87-43.82l181.1-221.16,94.1-115.05c.85-1.03,1.68-2.04,2.47-3.04.39-.49.77-.98,1.14-1.47.01,0,.01-.01.02-.02.36-.48.72-.97,1.05-1.45.54-.76,1.03-1.52,1.47-2.29.27-.46.51-.92.73-1.38.36-.73.65-1.47.87-2.21h.01s184.44-29.52,184.44-29.52Z"/>
</svg>
