<svg width="1024" height="1024" viewBox="0 0 1024 1024" fill="none" xmlns="http://www.w3.org/2000/svg">
<path d="M980.541 361.38C980.229 362.289 979.822 363.198 979.32 364.094C978.994 364.65 978.668 365.22 978.288 365.777C977.677 366.727 976.972 367.663 976.212 368.586C975.737 369.169 975.248 369.767 974.732 370.364C974.705 370.364 974.705 370.391 974.705 370.391C974.176 370.988 973.646 371.585 973.09 372.182C971.963 373.417 970.796 374.652 969.602 375.914L836.47 517.082L580.249 788.479C563.311 806.407 546.399 824.334 529.502 842.248C512.604 860.149 495.706 878.035 478.795 895.895C464.924 910.552 451.039 925.182 437.114 939.798H304.05L348.934 850.024L445.923 654.83L0 717.936L328.141 84.2012H790.717L673.247 237.529L534.144 419.736L725.298 394.643L725.325 394.615L980.541 361.366V361.38Z" fill="#F3A826"/>
<path d="M927.575 84.2012L839.06 186.993L648.488 404.71L533.05 420.328L616.857 306.503L707.89 183.57L781.024 84.2012H927.575Z" fill="#EF8D27"/>
<path d="M1024 354.461H1023.99L881.531 496.213L759.721 619.426L600.653 778.819L440.979 939.798H403.353C453.538 882.117 502.143 823.405 550.511 764.315C561.007 751.485 571.493 738.647 581.98 725.79C592.476 712.926 602.971 700.052 613.485 687.178L772.544 492.301C802.683 455.331 772.544 492.301 865.782 376.19L1024 354.461Z" fill="#EF8D27"/>
</svg>
